<?xml version="1.0" encoding="UTF-8"?>
<!DOCTYPE svg PUBLIC "-//W3C//DTD SVG 1.1//EN" "http://www.w3.org/Graphics/SVG/1.1/DTD/svg11.dtd">
<svg xmlns="http://www.w3.org/2000/svg" version="1.1" width="225px" height="225px" style="shape-rendering:geometricPrecision; text-rendering:geometricPrecision; image-rendering:optimizeQuality; fill-rule:evenodd; clip-rule:evenodd" xmlns:xlink="http://www.w3.org/1999/xlink">
<g><path style="opacity:1" fill="#fefefe" d="M -0.5,-0.5 C 74.5,-0.5 149.5,-0.5 224.5,-0.5C 224.5,74.5 224.5,149.5 224.5,224.5C 149.5,224.5 74.5,224.5 -0.5,224.5C -0.5,149.5 -0.5,74.5 -0.5,-0.5 Z"/></g>
<g><path style="opacity:1" fill="#70706f" d="M 109.5,46.5 C 112.044,46.1043 114.211,46.771 116,48.5C 116.667,55.5 116.667,62.5 116,69.5C 114.695,72.3064 112.528,73.1397 109.5,72C 108.874,71.2496 108.374,70.4162 108,69.5C 107.333,62.5 107.333,55.5 108,48.5C 108.717,47.9558 109.217,47.2891 109.5,46.5 Z"/></g>
<g><path style="opacity:1" fill="#6f6f6e" d="M 154.5,63.5 C 158.976,63.8222 160.476,66.1556 159,70.5C 154.167,75.3333 149.333,80.1667 144.5,85C 139.066,84.9734 137.566,82.4734 140,77.5C 144.729,72.6025 149.562,67.9359 154.5,63.5 Z"/></g>
<g><path style="opacity:1" fill="#747473" d="M 67.5,64.5 C 69.3084,64.4914 70.9751,64.9914 72.5,66C 77.5937,70.4209 81.927,75.4209 85.5,81C 84.0722,85.3644 81.4056,86.3644 77.5,84C 72.4063,79.5791 68.073,74.5791 64.5,69C 65.3146,67.3566 66.3146,65.8566 67.5,64.5 Z"/></g>
<g><path style="opacity:1" fill="#717170" d="M 105.5,81.5 C 130.976,80.8087 143.143,93.142 142,118.5C 136.412,136.404 124.245,144.237 105.5,142C 87.5963,136.412 79.763,124.245 82,105.5C 85.3579,92.9766 93.1912,84.9766 105.5,81.5 Z"/></g>
<g><path style="opacity:1" fill="#fefefe" d="M 105.5,90.5 C 118.6,88.4585 127.767,93.4585 133,105.5C 135.41,118.514 130.577,127.68 118.5,133C 104.992,135.497 95.8254,130.33 91,117.5C 89.0245,104.781 93.8579,95.7814 105.5,90.5 Z"/></g>
<g><path style="opacity:1" fill="#6f6f6e" d="M 48.5,107.5 C 55.5079,107.334 62.5079,107.5 69.5,108C 72.3064,109.305 73.1397,111.472 72,114.5C 71.2496,115.126 70.4162,115.626 69.5,116C 62.5,116.667 55.5,116.667 48.5,116C 45.8987,113.17 45.8987,110.337 48.5,107.5 Z"/></g>
<g><path style="opacity:1" fill="#6f6f6e" d="M 153.5,107.5 C 160.508,107.334 167.508,107.5 174.5,108C 177.306,109.305 178.14,111.472 177,114.5C 176.25,115.126 175.416,115.626 174.5,116C 167.5,116.667 160.5,116.667 153.5,116C 150.899,113.17 150.899,110.337 153.5,107.5 Z"/></g>
<g><path style="opacity:1" fill="#737372" d="M 79.5,138.5 C 85.3745,138.636 86.8745,141.303 84,146.5C 80.1667,150.333 76.3333,154.167 72.5,158C 68.6413,160.379 65.9746,159.379 64.5,155C 68.6428,148.692 73.6428,143.192 79.5,138.5 Z"/></g>
<g><path style="opacity:1" fill="#747473" d="M 140.5,138.5 C 142.655,138.372 144.655,138.872 146.5,140C 151.594,144.421 155.927,149.421 159.5,155C 158.025,159.379 155.359,160.379 151.5,158C 146.194,153.538 141.861,148.371 138.5,142.5C 138.752,140.927 139.418,139.594 140.5,138.5 Z"/></g>
<g><path style="opacity:1" fill="#70706f" d="M 109.5,151.5 C 112.547,150.855 114.713,151.855 116,154.5C 116.667,161.167 116.667,167.833 116,174.5C 113.822,178.065 111.156,178.399 108,175.5C 107.333,168.167 107.333,160.833 108,153.5C 108.717,152.956 109.217,152.289 109.5,151.5 Z"/></g>
</svg>
